<svg fill="none" viewBox="0 0 64 64" xmlns="http://www.w3.org/2000/svg">
  <path
    d="M29 11 L31 7 M33 12 L37 9 M30 15 L34 16"
    stroke="#EA580C"
    stroke-linecap="round"
    stroke-width="2"
  />
  <g transform="rotate(10 20 28)">
    <path
      d="M10 20 Q9 15 16 13 Q22 11 27 14 L26 37 Q25 42 17 41 Q10 40 10 33 Q9 26 10 20 Z"
      fill="#FDE68A"
      fill-opacity="0.7"
      stroke="#C2410C"
      stroke-linecap="round"
      stroke-linejoin="round"
      stroke-width="2.2"
    />
    <path
      d="M12 17 Q16 14 20 16 Q24 13 26 16"
      stroke="#C2410C"
      stroke-linecap="round"
      stroke-width="2"
    />
    <path
      d="M10 23 C4 24 3 29 5 33 C7 36 10 34 10 32"
      stroke="#C2410C"
      stroke-linecap="round"
      stroke-width="2.2"
    />
  </g>
  <g transform="rotate(-10 44 28)">
    <path
      d="M36 19 Q38 12 44 10 Q50 9 53 14 Q54 18 52 21 Q48 30 46 36 Q43 28 36 19 Z"
      fill="#FDBA74"
      fill-opacity="0.65"
      stroke="#C2410C"
      stroke-linecap="round"
      stroke-linejoin="round"
      stroke-width="2.2"
    />
    <path
      d="M38 17 Q44 13 50 16"
      stroke="#C2410C"
      stroke-linecap="round"
      stroke-width="1.6"
      opacity="0.7"
    />
    <path
      d="M46 36 L47 47"
      stroke="#C2410C"
      stroke-linecap="round"
      stroke-width="2.2"
    />
    <path
      d="M43 49 L51 49"
      stroke="#C2410C"
      stroke-linecap="round"
      stroke-width="2.2"
    />
    <path
      d="M49 13 Q52 11 54 15"
      stroke="#C2410C"
      stroke-linecap="round"
      stroke-width="1.8"
    />
    <circle cx="55" cy="15" fill="#84CC16" r="1.8" stroke="#65A30D" stroke-width="1" />
  </g>
</svg>
